<?xml version="1.0" encoding="utf-8"?>
<!DOCTYPE svg PUBLIC "-//W3C//DTD SVG 1.1//EN" "http://www.w3.org/Graphics/SVG/1.1/DTD/svg11.dtd">
<svg xmlns="http://www.w3.org/2000/svg" xmlns:xlink="http://www.w3.org/1999/xlink" version="1.1" baseProfile="full" width="410.667" height="120.889" viewBox="0 0 410.67 120.89" enable-background="new 0 0 410.67 120.89" xml:space="preserve">
	<path fill="#2673B5" fill-opacity="1" fill-rule="evenodd" stroke-width="0.2" stroke-linejoin="round" d="M 55.2451,87.208C 51.7326,89.8277 49.5515,94.3162 49.8631,99.2446C 50.3338,106.688 56.3106,112.311 63.2138,111.803C 70.1163,111.296 75.3315,104.85 74.8608,97.4067C 74.4084,90.2535 68.8696,84.7863 62.3119,84.8198C 62.0457,84.821 61.7786,84.8284 61.5093,84.8482C 59.176,85.0197 57.0382,85.8713 55.2451,87.208 Z "/>
	<path fill="#2673B5" fill-opacity="1" stroke-width="0.2" stroke-linejoin="round" d="M 79.677,46.4885C 78.1018,45.6916 76.2568,45.4001 74.3742,45.7794C 69.8155,46.6977 66.7704,51.1921 67.5719,55.8179C 68.3734,60.4439 72.718,63.4497 77.2767,62.5313C 81.8349,61.613 84.8804,57.1186 84.0789,52.4926C 83.8454,51.1452 83.3095,49.9368 82.5574,48.9212C 81.7935,47.8902 80.8049,47.0593 79.677,46.4885 Z "/>
	<path fill="#2673B5" fill-opacity="1" stroke-width="0.2" stroke-linejoin="round" d="M 16.8598,38.5184C 18.0188,38.582 19.2104,38.4545 20.3967,38.1068C 26.2332,36.3962 29.7225,30.0847 28.1912,24.0105C 26.6599,17.9362 20.6875,14.3979 14.8511,16.1086C 9.01524,17.8192 5.52531,24.1308 7.05658,30.205C 7.6022,32.3693 8.71378,34.2088 10.1801,35.6068C 11.9927,37.3338 14.3488,38.3818 16.8598,38.5184 Z "/>
	<g>
		<rect x="128.723" y="30.5029" fill="#000000" fill-opacity="1" stroke-width="0.2" stroke-linejoin="round" width="4.78339" height="65.173"/>
		<path fill="#000000" fill-opacity="1" stroke-width="0.2" stroke-linejoin="round" d="M 150.715,95.6759L 150.715,47.828L 154.128,47.828L 154.725,53.9238C 160.831,49.8598 166.815,47.828 172.678,47.828C 184.315,47.828 190.134,52.8543 190.134,62.9072L 190.134,95.6759L 185.35,95.6759L 185.35,62.7758C 185.35,55.6591 181.053,52.1008 172.459,52.1008C 166.713,52.1008 161.059,54.123 155.498,58.1676L 155.498,95.6759L 150.715,95.6759 Z "/>
		<path fill="#000000" fill-opacity="1" stroke-width="0.2" stroke-linejoin="round" d="M 204.848,95.6759L 204.848,45.4946C 204.848,33.9251 211.26,28.1405 224.084,28.1405C 228.002,28.1405 231.555,28.748 234.744,29.9633L 234.744,34.0612C 231.74,32.846 228.172,32.2384 224.04,32.2384C 214.434,32.2384 209.632,36.6911 209.632,45.5966L 209.632,47.828L 227.642,47.828L 227.642,51.9259L 209.632,51.9259L 209.632,95.6759L 204.848,95.6759 Z "/>
		<path fill="#000000" fill-opacity="1" stroke-width="0.2" stroke-linejoin="round" d="M 236.582,95.6759L 236.582,47.828L 239.994,47.828L 240.592,55.7467C 245.395,50.4675 250.742,47.828 256.634,47.828L 256.634,51.6488C 250.927,51.6488 245.837,54.4294 241.365,59.9904L 241.365,95.6759L 236.582,95.6759 Z "/>
		<path fill="#000000" fill-opacity="1" stroke-width="0.2" stroke-linejoin="round" d="M 262.788,82.1425C 262.788,72.6342 269.107,67.8801 281.746,67.8801C 286.209,67.8801 290.978,68.1814 296.053,68.7841L 296.053,62.9072C 296.053,55.5863 291.449,51.9259 282.242,51.9259C 277.323,51.9259 272.277,52.6842 267.105,54.2009L 267.105,50.103C 272.277,48.5863 277.323,47.828 282.242,47.828C 294.638,47.828 300.836,52.7766 300.836,62.6738L 300.836,95.6759L 297.919,95.6759L 296.825,90.9362C 290.837,94.096 285.032,95.6759 279.413,95.6759C 268.33,95.6759 262.788,91.1647 262.788,82.1425 Z M 281.746,71.978C 272.296,71.978 267.571,75.3176 267.571,81.9967C 267.571,88.3842 271.519,91.578 279.413,91.578C 285.246,91.578 290.793,90.0273 296.053,86.9259L 296.053,72.882C 290.978,72.2793 286.209,71.978 281.746,71.978 Z "/>
	</g>
	<g>
		<path fill="#2673B5" fill-opacity="1" stroke-width="0.2" stroke-linejoin="round" stroke="#2673B5" stroke-opacity="1" d="M 324.145,70.7678L 290.779,28.396L 298.191,28.396L 327.823,66.085L 357.436,28.396L 364.849,28.396L 331.539,70.7678L 364.849,113.121L 357.436,113.121L 327.823,75.4316L 298.191,113.121L 290.779,113.121L 324.145,70.7678 Z "/>
	</g>
	<path fill="#2673B5" fill-opacity="1" stroke-width="0.2" stroke-linejoin="round" d="M 16.4803,63.1503C 17.9854,67.3751 22.3682,69.9399 26.954,69.0161C 31.7401,68.052 35.0492,63.6313 34.739,58.8743C 34.7171,58.5404 34.6787,58.2043 34.6204,57.868C 34.4087,56.6466 33.9683,55.5296 33.355,54.5478C 32.009,52.3945 29.8188,50.9013 27.3154,50.4299C 26.1711,50.2143 24.962,50.2104 23.7383,50.457C 23.4136,50.5224 23.0957,50.604 22.7847,50.7004C 19.1438,51.8295 16.5309,55.0129 16.0239,58.6787C 15.892,59.6308 15.9008,60.6149 16.0723,61.6044C 16.1652,62.1408 16.3042,62.6562 16.4803,63.1503 Z "/>
	<path fill="#2673B5" fill-opacity="1" stroke-width="0.2" stroke-linejoin="round" d="M 68.0055,17.6693C 69.3489,21.486 73.2274,23.8168 77.2732,23.0018C 81.4957,22.1512 84.4024,18.177 84.1121,13.8851C 84.0917,13.5837 84.0566,13.2805 84.004,12.9769C 83.8129,11.8743 83.4203,10.8651 82.8754,9.97701C 81.6795,8.0295 79.7406,6.6739 77.5287,6.23872C 76.5177,6.03975 75.4501,6.03145 74.3705,6.24886C 74.084,6.30659 73.8036,6.37898 73.5294,6.4648C 70.3185,7.4687 68.0224,10.3295 67.5873,13.6341C 67.4741,14.4924 67.4852,15.3801 67.64,16.2734C 67.7239,16.7575 67.8483,17.2229 68.0055,17.6693 Z "/>
	<g>
		<rect x="357.122" y="54.9792" fill="#000000" fill-opacity="1" stroke-width="0.2" stroke-linejoin="round" width="2.72546" height="2.52515"/>
		<path fill="#000000" fill-opacity="1" stroke-width="0.2" stroke-linejoin="round" d="M 364.891,57.5043L 362.631,57.5043L 375.689,28.642L 378.215,28.642L 391.331,57.5043L 388.813,57.5043L 384.531,47.8168L 371.595,47.8168L 372.221,46.0022L 383.743,46.0022L 376.82,30.2954L 364.891,57.5043 Z "/>
		<rect x="396.337" y="28.642" fill="#000000" fill-opacity="1" stroke-width="0.2" stroke-linejoin="round" width="2.11835" height="28.8623"/>
	</g>
	<path fill="#2673B5" fill-opacity="1" stroke-width="0.2" stroke-linejoin="round" d="M 38.6639,28.9019C 40.7974,30.6955 43.9065,30.6091 46.0098,28.552C 48.2049,26.4047 48.5262,22.8734 46.8478,20.3848C 46.7299,20.2102 46.6027,20.04 46.465,19.8763C 45.965,19.2819 45.3788,18.8222 44.7452,18.4946C 43.3551,17.7766 41.734,17.7044 40.2748,18.2955C 39.6078,18.5656 38.9744,18.9731 38.4131,19.522C 38.2642,19.6677 38.124,19.8199 37.9921,19.9779C 36.4483,21.827 36.0967,24.4478 37,26.6184C 37.2346,27.1822 37.5528,27.7158 37.9579,28.1972C 38.1774,28.4582 38.4143,28.6921 38.6639,28.9019 Z "/>
	<line fill="none" stroke-width="1.33333" stroke-linejoin="round" stroke="#2673B5" stroke-opacity="1" x1="74.4587" y1="22.0908" x2="75.5379" y2="51.6969"/>
	<line fill="none" stroke-width="1.33333" stroke-linejoin="round" stroke="#2673B5" stroke-opacity="1" x1="45.2436" y1="28.8637" x2="71.9878" y2="49.6706"/>
	<line fill="none" stroke-width="1.33333" stroke-linejoin="round" stroke="#2673B5" stroke-opacity="1" x1="19.8111" y1="36.2197" x2="22.5886" y2="51.0595"/>
	<line fill="none" stroke-width="1.33333" stroke-linejoin="round" stroke="#2673B5" stroke-opacity="1" x1="33.379" y1="59.2794" x2="49.3634" y2="62.6735"/>
	<line fill="none" stroke-width="1.33333" stroke-linejoin="round" stroke="#2673B5" stroke-opacity="1" x1="13.8667" y1="87.8034" x2="49.2986" y2="65.356"/>
	<line fill="none" stroke-width="1.33333" stroke-linejoin="round" stroke="#2673B5" stroke-opacity="1" x1="59.3378" y1="87.7436" x2="53.8475" y2="68.8636"/>
	<line fill="none" stroke-width="1.33333" stroke-linejoin="round" stroke="#2673B5" stroke-opacity="1" x1="23.8947" y1="31.72" x2="50.8649" y2="60.5151"/>
	<line fill="none" stroke-width="1.33333" stroke-linejoin="round" stroke="#2673B5" stroke-opacity="1" x1="27.5611" y1="24.0505" x2="40.0236" y2="24.0505"/>
	<line fill="none" stroke-width="1.33333" stroke-linejoin="round" stroke="#2673B5" stroke-opacity="1" x1="47.123" y1="22.4472" x2="70.509" y2="16.2932"/>
	<line fill="none" stroke-width="1.33333" stroke-linejoin="round" stroke="#2673B5" stroke-opacity="1" x1="22.0665" y1="64.0991" x2="13.1808" y2="87.8544"/>
	<line fill="none" stroke-width="1.33333" stroke-linejoin="round" stroke="#2673B5" stroke-opacity="1" x1="13.8483" y1="88.1877" x2="50.4646" y2="96.8204"/>
	<path fill="#2673B5" fill-opacity="1" stroke-width="0.2" stroke-linejoin="round" d="M 96.6526,27.398C 97.2157,29.0412 98.8096,30.0577 100.461,29.7251C 102.184,29.378 103.357,27.6851 103.223,25.8425C 103.214,25.7131 103.198,25.5828 103.176,25.4523C 103.093,24.9785 102.929,24.5439 102.703,24.1606C 102.207,23.3199 101.41,22.7301 100.504,22.534C 100.09,22.4443 99.6536,22.4362 99.213,22.5251C 99.0961,22.5485 98.9817,22.5784 98.8699,22.6141C 97.5611,23.0312 96.6328,24.249 96.467,25.665C 96.4238,26.0327 96.4316,26.4137 96.4981,26.7976C 96.5342,27.0056 96.5867,27.2058 96.6526,27.398 Z "/>
	<path fill="#2673B5" fill-opacity="1" stroke-width="0.2" stroke-linejoin="round" d="M 96.4946,51.8164C 97.5834,54.871 100.755,56.7249 104.074,56.0564C 107.538,55.3586 109.933,52.1618 109.709,48.7221C 109.693,48.4807 109.665,48.2377 109.623,47.9946C 109.47,47.1113 109.152,46.3038 108.708,45.5939C 107.734,44.0371 106.149,42.9577 104.337,42.6171C 103.509,42.4614 102.634,42.4587 101.749,42.6372C 101.514,42.6845 101.284,42.7436 101.059,42.8134C 98.4235,43.6302 96.5322,45.9323 96.1649,48.5831C 96.0693,49.2717 96.0756,49.9831 96.1995,50.6987C 96.2667,51.0865 96.3672,51.4591 96.4946,51.8164 Z "/>
	<path fill="#2673B5" fill-opacity="1" stroke-width="0.2" stroke-linejoin="round" d="M 93.4758,83.8294C 95.366,89.3459 100.717,92.758 106.259,91.6416C 112.044,90.4763 115.984,84.7934 115.533,78.6075C 115.502,78.173 115.45,77.7359 115.374,77.2978C 115.098,75.707 114.547,74.2479 113.788,72.9611C 112.123,70.1389 109.446,68.1589 106.405,67.5007C 105.015,67.1997 103.55,67.1726 102.071,67.4705C 101.679,67.5495 101.295,67.6499 100.92,67.7695C 96.5255,69.1699 93.4094,73.258 92.8527,78.0114C 92.7077,79.2462 92.7339,80.5249 92.9572,81.8137C 93.0783,82.5122 93.2547,83.1843 93.4758,83.8294 Z "/>
	<line fill="none" stroke-width="1.33333" stroke-linejoin="round" stroke="#2673B5" stroke-opacity="1" x1="97.2708" y1="24.1729" x2="83.6986" y2="16.6306"/>
	<line fill="none" stroke-width="1.33333" stroke-linejoin="round" stroke="#2673B5" stroke-opacity="1" x1="79.1921" y1="51.0214" x2="97.6361" y2="28.3944"/>
	<line fill="none" stroke-width="1.33333" stroke-linejoin="round" stroke="#2673B5" stroke-opacity="1" x1="103.43" y1="46.3242" x2="100.716" y2="28.7019"/>
	<line fill="none" stroke-width="1.33333" stroke-linejoin="round" stroke="#2673B5" stroke-opacity="1" x1="78.1481" y1="58.6763" x2="102.647" y2="76.5755"/>
	<line fill="none" stroke-width="1.33333" stroke-linejoin="round" stroke="#2673B5" stroke-opacity="1" x1="74.5983" y1="96.4636" x2="100.699" y2="83.405"/>
	<line fill="none" stroke-width="1.33333" stroke-linejoin="round" stroke="#2673B5" stroke-opacity="1" x1="104.299" y1="52.012" x2="105.033" y2="71.7937"/>
	<path fill="#2673B5" fill-opacity="1" stroke-width="0.2" stroke-linejoin="round" d="M 52.0112,69.0629C 52.5637,69.0996 53.131,69.0424 53.6948,68.8772C 56.469,68.064 58.1063,64.9799 57.3523,61.989C 56.5983,58.998 53.7384,57.2321 50.9642,58.0452C 48.1903,58.8584 46.5527,61.9425 47.3067,64.9334C 47.5753,65.9992 48.1124,66.9079 48.8167,67.6015C 49.6873,68.4583 50.8142,68.9841 52.0112,69.0629 Z "/>
	<line fill="none" stroke-width="1.33333" stroke-linejoin="round" stroke="#2673B5" stroke-opacity="1" x1="73.1372" y1="60.4401" x2="65.4811" y2="90.3095"/>
	<line fill="none" stroke-width="1.33333" stroke-linejoin="round" stroke="#2673B5" stroke-opacity="1" x1="55.4585" y1="61.1905" x2="70.6315" y2="56.0872"/>
	<line fill="none" stroke-width="1.33333" stroke-linejoin="round" stroke="#2673B5" stroke-opacity="1" x1="51.7" y1="60.29" x2="44.3223" y2="26.9683"/>
	<line fill="none" stroke-width="1.33333" stroke-linejoin="round" stroke="#2673B5" stroke-opacity="1" x1="53.2312" y1="62.3913" x2="98.3328" y2="79.0522"/>
	<path fill="#2673B5" fill-opacity="1" stroke-width="0.2" stroke-linejoin="round" d="M 13.9953,85.7297C 13.4805,85.4722 12.8772,85.3789 12.2612,85.5029C 10.7697,85.8034 9.77139,87.2626 10.0312,88.7622C 10.291,90.2619 11.7106,91.234 13.2021,90.9335C 14.6936,90.633 15.6919,89.1738 15.4321,87.6743C 15.3564,87.2374 15.1817,86.8459 14.9362,86.5169C 14.6869,86.1831 14.364,85.9141 13.9953,85.7297 Z "/>
</svg>
