<?xml version="1.0" encoding="utf-8"?>
<!DOCTYPE svg PUBLIC "-//W3C//DTD SVG 1.1//EN" "http://www.w3.org/Graphics/SVG/1.1/DTD/svg11.dtd">
<svg xmlns="http://www.w3.org/2000/svg" xmlns:xlink="http://www.w3.org/1999/xlink" version="1.1" baseProfile="full" width="108.726" height="105.564" viewBox="0 0 108.73 105.56" enable-background="new 0 0 108.73 105.56" xml:space="preserve">
	<path fill="#2673B5" fill-opacity="1" fill-rule="evenodd" stroke-width="0.2" stroke-linejoin="round" d="M 48.4373,80.9692C 44.9248,83.589 42.7437,88.0775 43.0553,93.0058C 43.526,100.449 49.5029,106.072 56.4061,105.564C 63.3086,105.057 68.5237,98.6115 68.053,91.1679C 67.6007,84.0147 62.0618,78.5475 55.5041,78.581C 55.238,78.5822 54.9708,78.5897 54.7015,78.6095C 52.3682,78.781 50.2304,79.6325 48.4373,80.9692 Z "/>
	<path fill="#2673B5" fill-opacity="1" stroke-width="0.2" stroke-linejoin="round" d="M 72.8692,40.2497C 71.2939,39.453 69.449,39.1613 67.5663,39.5407C 63.0077,40.459 59.9626,44.9533 60.7641,49.5793C 61.5656,54.2052 65.9102,57.2109 70.4689,56.2926C 75.0272,55.3744 78.0726,50.8799 77.2711,46.254C 77.0376,44.9065 76.5016,43.6982 75.7496,42.6825C 74.9857,41.6515 73.997,40.8205 72.8692,40.2497 Z "/>
	<path fill="#2673B5" fill-opacity="1" stroke-width="0.2" stroke-linejoin="round" d="M 10.052,32.2798C 11.2111,32.3434 12.4026,32.2159 13.5889,31.8681C 19.4254,30.1576 22.9147,23.8461 21.3834,17.7718C 19.8521,11.6976 13.8798,8.15933 8.0433,9.87003C 2.20746,11.5805 -1.28247,17.8922 0.24884,23.9664C 0.794434,26.1308 1.90601,27.9702 3.37238,29.3681C 5.18494,31.0952 7.54102,32.1432 10.052,32.2798 Z "/>
	<path fill="#2673B5" fill-opacity="1" stroke-width="0.2" stroke-linejoin="round" d="M 9.67245,56.9116C 11.1776,61.1364 15.5604,63.7011 20.1462,62.7773C 24.9323,61.8132 28.2414,57.3925 27.9311,52.6357C 27.9093,52.3017 27.8708,51.9657 27.8126,51.6293C 27.6009,50.4079 27.1605,49.2909 26.5472,48.3092C 25.2011,46.1559 23.011,44.6627 20.5076,44.1913C 19.3633,43.9756 18.1542,43.9718 16.9305,44.2182C 16.6058,44.2837 16.2878,44.3653 15.9769,44.4618C 12.336,45.5908 9.72308,48.7741 9.21613,52.4399C 9.0842,53.3922 9.09302,54.3762 9.26447,55.3658C 9.35742,55.9022 9.49634,56.4174 9.67245,56.9116 Z "/>
	<path fill="#2673B5" fill-opacity="1" stroke-width="0.2" stroke-linejoin="round" d="M 61.1978,11.4306C 62.5412,15.2473 66.4197,17.5781 70.4655,16.7631C 74.688,15.9125 77.5946,11.9383 77.3044,7.64639C 77.2839,7.34494 77.2489,7.04184 77.1963,6.73819C 77.0052,5.63565 76.6125,4.62637 76.0676,3.73837C 74.8718,1.79074 72.9329,0.435211 70.721,9.15527e-005C 69.7099,-0.199005 68.6423,-0.207306 67.5627,0.0101624C 67.2763,0.0679626 66.9958,0.140289 66.7216,0.226044C 63.5108,1.22995 61.2147,4.09091 60.7796,7.39542C 60.6664,8.25375 60.6776,9.14145 60.8323,10.0346C 60.9162,10.5189 61.0406,10.9842 61.1978,11.4306 Z "/>
	<path fill="#2673B5" fill-opacity="1" stroke-width="0.2" stroke-linejoin="round" d="M 31.8561,22.6632C 33.9896,24.4569 37.0987,24.3705 39.202,22.3132C 41.3971,20.1661 41.7184,16.6347 40.04,14.1461C 39.9221,13.9714 39.7949,13.8012 39.6572,13.6376C 39.1572,13.0433 38.571,12.5835 37.9373,12.256C 36.5472,11.5379 34.9261,11.4657 33.467,12.0568C 32.8,12.3269 32.1666,12.7343 31.6053,13.2834C 31.4564,13.429 31.3161,13.5812 31.1843,13.7392C 29.6405,15.5883 29.2889,18.2091 30.1922,20.3796C 30.4268,20.9435 30.7451,21.4771 31.1501,21.9586C 31.3696,22.2196 31.6065,22.4535 31.8561,22.6632 Z "/>
	<line fill="none" stroke-width="1.33333" stroke-linejoin="round" stroke="#2673B5" stroke-opacity="1" x1="67.6508" y1="15.852" x2="68.7302" y2="45.4581"/>
	<line fill="none" stroke-width="1.33333" stroke-linejoin="round" stroke="#2673B5" stroke-opacity="1" x1="38.436" y1="22.6249" x2="65.1802" y2="43.4318"/>
	<line fill="none" stroke-width="1.33333" stroke-linejoin="round" stroke="#2673B5" stroke-opacity="1" x1="13.0034" y1="29.981" x2="15.7808" y2="44.8208"/>
	<line fill="none" stroke-width="1.33333" stroke-linejoin="round" stroke="#2673B5" stroke-opacity="1" x1="26.5712" y1="53.0407" x2="42.5556" y2="56.4348"/>
	<line fill="none" stroke-width="1.33333" stroke-linejoin="round" stroke="#2673B5" stroke-opacity="1" x1="7.05896" y1="81.5647" x2="42.4908" y2="59.1173"/>
	<line fill="none" stroke-width="1.33333" stroke-linejoin="round" stroke="#2673B5" stroke-opacity="1" x1="52.53" y1="81.5048" x2="47.0397" y2="62.6248"/>
	<line fill="none" stroke-width="1.33333" stroke-linejoin="round" stroke="#2673B5" stroke-opacity="1" x1="17.0869" y1="25.4814" x2="44.0571" y2="54.2765"/>
	<line fill="none" stroke-width="1.33333" stroke-linejoin="round" stroke="#2673B5" stroke-opacity="1" x1="20.7533" y1="17.8119" x2="33.2158" y2="17.8119"/>
	<line fill="none" stroke-width="1.33333" stroke-linejoin="round" stroke="#2673B5" stroke-opacity="1" x1="40.3152" y1="16.2085" x2="63.7012" y2="10.0544"/>
	<line fill="none" stroke-width="1.33333" stroke-linejoin="round" stroke="#2673B5" stroke-opacity="1" x1="15.2588" y1="57.8604" x2="6.37302" y2="81.6157"/>
	<line fill="none" stroke-width="1.33333" stroke-linejoin="round" stroke="#2673B5" stroke-opacity="1" x1="7.04053" y1="81.9491" x2="43.6568" y2="90.5817"/>
	<path fill="#2673B5" fill-opacity="1" stroke-width="0.2" stroke-linejoin="round" d="M 89.8448,21.1593C 90.4078,22.8026 92.0018,23.819 93.6527,23.4864C 95.3757,23.1393 96.5495,21.4464 96.4153,19.6039C 96.4058,19.4745 96.3904,19.3441 96.3678,19.2137C 96.2856,18.7398 96.1215,18.3051 95.8955,17.9218C 95.3995,17.0812 94.602,16.4914 93.6962,16.2953C 93.2822,16.2057 92.8458,16.1976 92.4052,16.2863C 92.2883,16.3099 92.1739,16.3398 92.0621,16.3754C 90.7532,16.7926 89.825,18.0103 89.6591,19.4262C 89.616,19.794 89.6238,20.175 89.6903,20.5588C 89.7264,20.7669 89.7789,20.9671 89.8448,21.1593 Z "/>
	<path fill="#2673B5" fill-opacity="1" stroke-width="0.2" stroke-linejoin="round" d="M 89.6868,45.5777C 90.7756,48.6323 93.9471,50.4862 97.2659,49.8177C 100.73,49.12 103.125,45.9231 102.901,42.4835C 102.885,42.2419 102.857,41.999 102.815,41.7558C 102.662,40.8727 102.344,40.0651 101.9,39.3552C 100.926,37.7984 99.3412,36.719 97.5295,36.3785C 96.7015,36.2227 95.8265,36.2201 94.9409,36.3984C 94.7059,36.4458 94.4758,36.5049 94.2507,36.5747C 91.6157,37.3915 89.7243,39.6937 89.3571,42.3444C 89.2614,43.0329 89.2678,43.7445 89.3917,44.4599C 89.4589,44.8478 89.5594,45.2204 89.6868,45.5777 Z "/>
	<path fill="#2673B5" fill-opacity="1" stroke-width="0.2" stroke-linejoin="round" d="M 86.6681,77.5907C 88.5582,83.1071 93.9094,86.5194 99.4515,85.4029C 105.236,84.2376 109.176,78.5548 108.726,72.3688C 108.694,71.9344 108.642,71.4972 108.566,71.0592C 108.29,69.4684 107.739,68.0092 106.981,66.7224C 105.316,63.9002 102.638,61.9203 99.5975,61.2621C 98.2076,60.961 96.7424,60.9339 95.2635,61.2318C 94.8711,61.3109 94.4871,61.4111 94.1118,61.5309C 89.7177,62.9312 86.6016,67.0193 86.0449,71.7727C 85.9,73.0075 85.9261,74.2861 86.1495,75.5749C 86.2705,76.2735 86.447,76.9455 86.6681,77.5907 Z "/>
	<line fill="none" stroke-width="1.33333" stroke-linejoin="round" stroke="#2673B5" stroke-opacity="1" x1="90.463" y1="17.9342" x2="76.8908" y2="10.3918"/>
	<line fill="none" stroke-width="1.33333" stroke-linejoin="round" stroke="#2673B5" stroke-opacity="1" x1="72.3843" y1="44.7827" x2="90.8283" y2="22.1557"/>
	<line fill="none" stroke-width="1.33333" stroke-linejoin="round" stroke="#2673B5" stroke-opacity="1" x1="96.6223" y1="40.0855" x2="93.9085" y2="22.4631"/>
	<line fill="none" stroke-width="1.33333" stroke-linejoin="round" stroke="#2673B5" stroke-opacity="1" x1="71.3403" y1="52.4377" x2="95.8397" y2="70.3368"/>
	<line fill="none" stroke-width="1.33333" stroke-linejoin="round" stroke="#2673B5" stroke-opacity="1" x1="67.7905" y1="90.2248" x2="93.891" y2="77.1664"/>
	<line fill="none" stroke-width="1.33333" stroke-linejoin="round" stroke="#2673B5" stroke-opacity="1" x1="97.4915" y1="45.7733" x2="98.2249" y2="65.555"/>
	<path fill="#2673B5" fill-opacity="1" stroke-width="0.2" stroke-linejoin="round" d="M 45.2034,62.8242C 45.756,62.8608 46.3232,62.8038 46.8871,62.6385C 49.6613,61.8253 51.2986,58.7413 50.5446,55.7503C 49.7906,52.7594 46.9306,50.9935 44.1564,51.8065C 41.3825,52.6196 39.7449,55.7038 40.499,58.6947C 40.7676,59.7605 41.3046,60.6693 42.009,61.3628C 42.8796,62.2196 44.0064,62.7453 45.2034,62.8242 Z "/>
	<line fill="none" stroke-width="1.33333" stroke-linejoin="round" stroke="#2673B5" stroke-opacity="1" x1="66.3294" y1="54.2014" x2="58.6733" y2="84.0708"/>
	<line fill="none" stroke-width="1.33333" stroke-linejoin="round" stroke="#2673B5" stroke-opacity="1" x1="48.6506" y1="54.9518" x2="63.8237" y2="49.8485"/>
	<line fill="none" stroke-width="1.33333" stroke-linejoin="round" stroke="#2673B5" stroke-opacity="1" x1="44.8922" y1="54.0512" x2="37.5145" y2="20.7296"/>
	<line fill="none" stroke-width="1.33333" stroke-linejoin="round" stroke="#2673B5" stroke-opacity="1" x1="46.4235" y1="56.1527" x2="91.525" y2="72.8134"/>
	<path fill="#2673B5" fill-opacity="1" stroke-width="0.2" stroke-linejoin="round" d="M 7.1875,79.4911C 6.67267,79.2336 6.0694,79.1401 5.45337,79.2643C 3.96185,79.5647 2.96356,81.0239 3.22339,82.5235C 3.48325,84.0232 4.90277,84.9953 6.39435,84.6948C 7.88574,84.3944 8.88412,82.9352 8.62427,81.4355C 8.54858,80.9987 8.3739,80.6071 8.12842,80.2782C 7.87909,79.9444 7.55615,79.6754 7.1875,79.4911 Z "/>
</svg>
